<svg xmlns="http://www.w3.org/2000/svg">
  <symbol id="layout" viewBox="0 0 64 64">
    <rect x="9" y="10" width="46" height="44" rx="7" fill="none" stroke="currentColor" stroke-width="3"/>
    <path d="M9 23h46M23 23v31" fill="none" stroke="currentColor" stroke-width="3"/>
    <path d="m34 43 3.4-10.1L47.5 43l-10.1 3.4Z" fill="none" stroke="currentColor" stroke-linejoin="round" stroke-width="3"/>
    <circle cx="15.5" cy="16.5" r="1.6" fill="currentColor"/>
  </symbol>

  <symbol id="web" viewBox="0 0 64 64">
    <rect x="7" y="10" width="50" height="44" rx="7" fill="none" stroke="currentColor" stroke-width="3"/>
    <path d="M7 22h50M14 16h.1M20 16h.1M26 16h.1M27 31l-8 6 8 6M37 31l8 6-8 6" fill="none" stroke="currentColor" stroke-linecap="round" stroke-linejoin="round" stroke-width="3"/>
  </symbol>

  <symbol id="camera" viewBox="0 0 64 64">
    <path d="M11 22h10l4-7h14l4 7h10a5 5 0 0 1 5 5v23a5 5 0 0 1-5 5H11a5 5 0 0 1-5-5V27a5 5 0 0 1 5-5Z" fill="none" stroke="currentColor" stroke-linejoin="round" stroke-width="3"/>
    <circle cx="32" cy="38" r="11" fill="none" stroke="currentColor" stroke-width="3"/>
    <path d="m27 29 4 9 10-2M41 36l-6 8-8-6M35 44l-4-6" fill="none" stroke="currentColor" stroke-linecap="round" stroke-linejoin="round" stroke-width="2.2"/>
  </symbol>

  <symbol id="support" viewBox="0 0 64 64">
    <path d="M12 35v-5a20 20 0 0 1 40 0v5M12 35h7v16h-3a7 7 0 0 1-7-7v-6a3 3 0 0 1 3-3ZM52 35h-7v16h3a7 7 0 0 0 7-7v-6a3 3 0 0 0-3-3ZM45 51c-2 5-6 7-13 7" fill="none" stroke="currentColor" stroke-linecap="round" stroke-linejoin="round" stroke-width="3"/>
    <circle cx="29" cy="58" r="2.5" fill="currentColor"/>
  </symbol>

  <symbol id="adobe" viewBox="0 0 64 64">
    <path d="M24.5 17.5a14 14 0 1 0 0 28h15a14 14 0 1 0 0-28 14 14 0 0 0-12 6.8" fill="none" stroke="currentColor" stroke-linecap="round" stroke-width="5"/>
    <path d="M39.5 46.5a14 14 0 1 0 0-28h-15a14 14 0 1 0 0 28 14 14 0 0 0 12-6.8" fill="none" stroke="currentColor" stroke-linecap="round" stroke-width="5" opacity=".72"/>
  </symbol>

  <symbol id="canva" viewBox="0 0 64 64">
    <circle cx="32" cy="32" r="25" fill="none" stroke="currentColor" stroke-width="3"/>
    <path d="M43.5 21.5c-3-3.1-7-4.7-11.1-4.2-8.1 1-13.6 9-12 17.1 1.4 7 7.6 12.3 14.7 12.3 4.4 0 8.1-1.9 10.8-5" fill="none" stroke="currentColor" stroke-linecap="round" stroke-width="5"/>
    <path d="M43 24c-2.5-1.8-5.6-2.7-8.7-2.2-5.4.9-9.2 6-8.5 11.5.7 5.2 5.1 9.1 10.2 9.1 2.6 0 4.9-.9 6.7-2.5" fill="none" stroke="currentColor" stroke-linecap="round" stroke-width="2.3" opacity=".7"/>
  </symbol>

  <symbol id="figma" viewBox="0 0 64 64">
    <path d="M21 8h11v16H21a8 8 0 0 1 0-16Z" fill="currentColor"/>
    <path d="M32 8h11a8 8 0 0 1 0 16H32Z" fill="currentColor" opacity=".72"/>
    <path d="M21 24h11v16H21a8 8 0 0 1 0-16Z" fill="currentColor" opacity=".82"/>
    <circle cx="40" cy="32" r="8" fill="currentColor" opacity=".58"/>
    <path d="M21 40h11v8a8 8 0 1 1-11-7.4Z" fill="currentColor" opacity=".68"/>
  </symbol>

  <symbol id="javascript" viewBox="0 0 64 64">
    <rect x="8" y="8" width="48" height="48" rx="5" fill="none" stroke="currentColor" stroke-width="3"/>
    <path d="M32 24v20c0 5-3 8-8 8-4 0-6.8-2-8.3-5.1M48.5 28.5c-1.8-3.2-4.2-4.7-7.4-4.7-3.8 0-6.4 2.2-6.4 5.5 0 3.8 2.8 5.2 6.8 7 4.2 1.9 6.5 3.6 6.5 7.6 0 4.7-3.7 7.7-8.7 7.7-4.4 0-7.6-2.1-9.4-5.9" fill="none" stroke="currentColor" stroke-linecap="round" stroke-linejoin="round" stroke-width="3.6"/>
  </symbol>

  <symbol id="react" viewBox="0 0 64 64">
    <circle cx="32" cy="32" r="4.2" fill="currentColor"/>
    <ellipse cx="32" cy="32" rx="25" ry="10" fill="none" stroke="currentColor" stroke-width="2.7"/>
    <ellipse cx="32" cy="32" rx="25" ry="10" fill="none" stroke="currentColor" stroke-width="2.7" transform="rotate(60 32 32)"/>
    <ellipse cx="32" cy="32" rx="25" ry="10" fill="none" stroke="currentColor" stroke-width="2.7" transform="rotate(120 32 32)"/>
  </symbol>

  <symbol id="typescript" viewBox="0 0 64 64">
    <rect x="8" y="8" width="48" height="48" rx="5" fill="none" stroke="currentColor" stroke-width="3"/>
    <path d="M17 25h21M27.5 25v27M50 29c-1.8-3.4-4.3-5-7.6-5-3.9 0-6.6 2.3-6.6 5.7 0 3.9 2.9 5.4 7 7.2 4.4 2 6.7 3.8 6.7 7.9 0 4.8-3.8 7.9-9 7.9-4.5 0-7.8-2.2-9.7-6.1" fill="none" stroke="currentColor" stroke-linecap="round" stroke-linejoin="round" stroke-width="3.6"/>
  </symbol>
</svg>
